<svg version="1.1" viewBox="0 0 2048 2048" width="1280px" height="1280px" xmlns="http://www.w3.org/2000/svg">
<path transform="translate(0)" d="m0 0h2048v2048h-2048z" fill="#fffffff2" data-originalfillcolor="#101010"></path>
<path transform="translate(1096,420)" d="m0 0h57l41 2 24 2 55 9 36 8 33 9 36 12 27 10 30 13 26 12 28 15 21 12 14 9 12 8 19 13 28 21 13 10 10 8 15 14 6 9 4 11 1 7-4 13-5 10-8 9-5 3-5 1-27 1-458 1-40 2-23 3-50 10-29 9-30 11-20 9-21 10-23 13-18 11-12 8-11 8-13 10-15 13-11 9-7 7-8 7-12 12-7 8-12 13-7 9-20 26-7 11-12 19-13 24-8 16-10 21-9 24-9 27-11 44-4 33-4 48-5 23-5 13-7 8-5 4-13 1-81 1h-104l-10-1-8-5-10-12-5-10-2-7v-19l3-36 5-46 4-31 11-50 13-45 12-35 16-40 14-29 8-16 9-17 12-20 13-21 10-15 10-14 12-16 8-9 7-9 10-13 11-13 9-10 14-15 27-27 8-7 10-9 17-13 14-11 13-11 14-10 22-15 17-11 20-12 27-15 16-8 32-15 24-10 21-8 48-15 40-10 61-11 16-2z" fill="#000000" data-originalfillcolor="#fff"></path>
<path transform="translate(1647,1121)" d="m0 0h196l9 6 11 11 6 10 1 3v37l-2 41-3 30-4 20-6 38-12 48-13 40-9 25-13 31-19 39-10 19-13 22-10 15-11 17-12 16-9 13-12 16-9 10-7 8-8 8-7 8-12 13-7 8-4 4h-2l-2 4-13 12-13 11-14 13-11 9-13 11-17 12-18 13-14 10-20 12-13 8-19 11-22 12-22 11-34 15-29 11-44 15-56 14-40 8-44 5-37 3-32 3h-19l-44-4-35-3-10-2h-16l-12-2-4-3-8-2-28-5-17-4-47-15-26-9-28-12-28-13-29-15-23-13-32-21-16-11-13-10-15-12-16-12-13-11-10-9-7-9-4-10v-13l3-10 6-8 7-8 10-5 4-1 433-1 42-1 57-4 22-3 36-8 26-7 24-8 21-9 26-12 20-10 22-13 15-10 18-13 13-9 12-11 14-12 30-30 7-8 15-16 8-12 12-17 15-23 8-14 12-22 7-15 10-25 9-24 9-34 6-28 5-31 5-43 2-29 5-8 8-8 11-8z" fill="#000000" data-originalfillcolor="#fff"></path>
<path transform="translate(1300,1121)" d="m0 0h191l7 3 10 9 7 9 4 8 1 7v15l-3 37-6 31-6 27-7 21-8 20-8 19-10 19-11 19-12 17-13 18-8 10-12 14-19 19-8 7-11 10-17 12-18 13-13 8-21 12-23 11-20 8-27 9-32 8-31 4-46 3h-607l-15-2-8-5-8-9-13-21-15-29-13-28-14-34-10-28-8-26-5-19-3-11v-8l6-12 9-10 10-7 5-2 8-1 296-1h384l25-2 17-4 19-8 16-9 13-10 13-12 10-13 11-19 6-15 5-22 4-27 4-13 8-11 10-7z" fill="#000000" data-originalfillcolor="#fff"></path>
<path transform="translate(1577,770)" d="m0 0h100l71 1 7 3 8 7 6 7 9 14 10 18 13 26 12 28 12 30 11 31 10 33 2 14-1 12-4 9-7 8-8 7-5 2-12 1-43 1h-623l-32 1-15 2-30 13-18 11-13 11-13 13-10 13-8 16-5 11-4 25-2 18-3 13-6 12-8 9-6 5-9 1-94 1h-91l-11-1-8-4-8-8-6-10-4-14v-10l4-38 4-33 9-34 7-21 9-20 8-17 7-14 10-18 13-20 8-11 11-14 20-20 6-7 5-5 17-16 11-10 18-13 21-13 13-8 21-11 23-10 34-12 39-8 16-4 35-2z" fill="#000000" data-originalfillcolor="#fff"></path>
</svg>