<?xml version="1.0" encoding="UTF-8"?>
<svg version="1.1" viewBox="0 0 2048 2048" width="1280" height="1280" xmlns="http://www.w3.org/2000/svg">
<path transform="translate(0)" d="m0 0h2048v2048h-2048z" fill="#FEFFFE"/>
<path transform="translate(876,562)" d="m0 0h40l26 2 30 4 31 7 26 8 25 10 16 8 20 11 14 10 14 11 15 14 10 11 13 18 10 17 8 19 5 15 5 25 1 9v40l-4 28-7 28-8 24-10 24-12 25-12 22-8 13-12 19-3-3-4-10-8-16-10-15-10-13-12-13-17-17-11-9-17-13-17-11-15-9-23-12-19-9-26-10-29-9-30-7-25-4-18-2-17-1h-30l-23 2-30 5-26 7-24 9-24 12-19 12-14 11-14 12-16 16-11 14-10 14-5 5-2-9-3-26-1-14v-34l3-29 6-28 6-19 7-18 9-19 12-20 14-19 10-11 7-8 11-11 8-7 16-13 16-11 18-11 27-14 24-10 33-11 24-6 26-5 34-4z" fill="#010000"/>
<path transform="translate(936,1064)" d="m0 0 2 1 5 12 11 21 10 14 9 11 9 10 17 17 11 9 17 13 15 10 20 12 25 13 28 12 36 12 23 6 26 5 33 4h53l31-4 23-5 26-8 17-7 16-8 16-9 18-13 14-12 10-9 11-12 9-11 13-18 1-2 3 1 4 37 1 16v22l-2 27-5 28-7 25-7 18-8 18-8 14-12 18-11 14-11 12-4 5h-2l-2 4-12 11-17 14-21 14-17 10-23 12-24 10-36 12-34 8-32 5-21 2-17 1h-31l-35-3-28-4-30-7-36-12-20-9-23-12-12-8-16-12-10-9-8-7-12-13-12-16-12-21-8-19-6-21-4-23-1-13v-17l2-23 5-28 7-25 7-20 11-26 13-26 13-23 15-24z" fill="#010000"/>
<path transform="translate(772,862)" d="m0 0h15l24 2 18 3 25 6 16 5 22 8 24 11 16 8 22 12 24 15 5 4v2l-15 6-17 9-11 8-9 7-10 8-7 7h-2v2l-6 5-7 8-12 14-14 19-14 22-12 22-12 25-11 28-6 19-7 26-5 25-4 31-1 15v34l3 28 5 28 7 24 7 19 11 23 11 18 10 14 11 13 12 13 13 12 13 10 16 12v1l-27 4-24 2h-26l-25-2-29-5-19-5-22-8-27-13-18-11-16-12-13-11-13-12-15-16-12-16-12-17-12-21-9-17-12-29-11-33-7-29-5-28-3-27-1-15v-41l2-25 4-29 8-36 11-33 11-25 11-20 10-15 9-12 12-14 11-11 11-9 12-9 15-9 19-9 18-6 23-5z" fill="#010000"/>
<path transform="translate(1174,549)" d="m0 0h38l28 3 24 5 21 6 20 8 19 9 20 12 16 12 13 11 10 9 12 12 9 11 13 17 8 12 9 15 11 20 11 25 8 22 7 23 7 31 5 32 2 21 1 23v19l-1 23-4 34-6 30-7 26-10 27-14 29-12 20-13 17-9 10-7 8-12 11-15 11-18 11-17 8-21 7-18 4-14 2h-41l-27-4-19-4-23-7-28-11-32-15-23-13-20-12-11-7v-2l13-5 19-10 16-11 11-9 10-9 17-17 9-11 13-17 8-12 10-16 12-22 13-28 10-27 8-26 7-30 4-25 2-20 1-18v-18l-2-29-5-31-6-23-7-20-9-20-11-20-11-16-13-16-14-15-12-11-14-11-16-11 2-2 32-4z" fill="#010000"/>
</svg>
